<?xml version="1.0" encoding="UTF-8"?>
<svg version="1.1" xmlns="http://www.w3.org/2000/svg" width="314" height="197">
<path d="M0 0 C15.59743441 0.28593553 31.19399165 0.60955497 46.79029083 0.95162201 C49.10398332 1.00227655 51.41768363 1.05256411 53.73138428 1.10284424 C63.17524591 1.30879261 72.61886196 1.52315223 82.06222057 1.75107193 C86.3915238 1.85546463 90.7208473 1.95697081 95.05038452 2.0512085 C99.18918351 2.14147803 103.3276974 2.24028642 107.46615028 2.34519768 C109.0004206 2.38269014 110.5347657 2.41726025 112.06917381 2.44861031 C136.79953335 2.95997675 136.79953335 2.95997675 145 10 C151.23098267 17.66890175 150.0522457 25.76933675 149.75805664 35.13452148 C149.68868632 37.39877846 149.63374579 39.66305792 149.58007812 41.92773438 C148.83355789 69.41119869 148.83355789 69.41119869 142 77.3125 C138.28373941 80.44809487 134.77990398 80.12859506 130.1015625 80.1328125 C129.42958832 80.13376923 128.75761414 80.13472595 128.0652771 80.13571167 C126.64475409 80.13639149 125.22422796 80.13455098 123.80371094 80.13037109 C121.63990205 80.12503674 119.4763023 80.13031405 117.3125 80.13671875 C115.92968705 80.13605761 114.54687422 80.13477569 113.1640625 80.1328125 C111.28388428 80.13112061 111.28388428 80.13112061 109.36572266 80.12939453 C106.44049608 80.01693478 103.8387271 79.68013281 101 79 C103.54891901 84.90885771 106.96662117 89.74342994 110.92089844 94.7734375 C114.25148493 99.01192083 117.47609856 103.31219627 120.625 107.6875 C121.06279785 108.28771973 121.5005957 108.88793945 121.95166016 109.50634766 C125 113.76272874 125 113.76272874 125 116 C131.6 116 138.2 116 145 116 C145 140.75 145 165.5 145 191 C140.95361875 187.762895 138.11000483 184.85462877 135.0625 180.8125 C130.73077989 175.17930449 126.28551826 169.65792122 121.75 164.1875 C113.94242791 154.73950438 113.94242791 154.73950438 110.625 150.5625 C110.10164063 149.90378906 109.57828125 149.24507812 109.0390625 148.56640625 C108 147 108 147 108 145 C107.34 145 106.68 145 106 145 C104.68208047 143.42958187 103.4488634 141.78808495 102.25 140.125 C101.440563 139.01694067 100.62924142 137.91025646 99.81640625 136.8046875 C99.3692627 136.19592773 98.92211914 135.58716797 98.46142578 134.95996094 C95.76439202 131.34288993 92.96896951 127.80226109 90.1875 124.25 C80.43692072 111.7511118 70.8203631 99.17825 62 86 C61.38898438 85.12859375 60.77796875 84.2571875 60.1484375 83.359375 C56.20522514 77.41652414 54.53581816 72.18376658 55 65 C56.50334437 59.60564668 59.19809798 55.04548533 64 52 C67.92463346 51.18039055 71.74767666 51.30000992 75.7421875 51.4140625 C76.86569611 51.42255219 77.98920471 51.43104187 79.14675903 51.43978882 C82.72382799 51.47328914 86.29861612 51.54856922 89.875 51.625 C92.30465487 51.65510364 94.73434519 51.68247873 97.1640625 51.70703125 C103.11024949 51.77307064 109.05473848 51.87657554 115 52 C115 45.07 115 38.14 115 31 C91.9 31 68.8 31 45 31 C45.495 36.94 45.495 36.94 46 43 C46.10539378 45.88729927 46.18465516 48.74033356 46.1875 51.625 C46.19974609 52.31722656 46.21199219 53.00945313 46.22460938 53.72265625 C46.22975762 55.48335585 46.12365776 57.24364059 46 59 C45.34 59.66 44.68 60.32 44 61 C43.45811035 60.26233398 43.45811035 60.26233398 42.90527344 59.50976562 C36.57566974 50.89702629 30.23827936 42.29132389 23.8125 33.75 C21.8736458 31.16768043 19.93647398 28.58410483 18 26 C17.21471924 24.95344238 17.21471924 24.95344238 16.41357422 23.88574219 C14.8538568 21.80263921 13.30104568 19.71456471 11.75 17.625 C11.27151611 16.98788086 10.79303223 16.35076172 10.30004883 15.69433594 C7 11.22895163 7 11.22895163 7 9 C6.34 9 5.68 9 5 9 C3.35 6.03 1.7 3.06 0 0 Z " fill="#DE3532" transform="translate(3,4)"/>
<path d="M0 0 C-1.86434327 3.13486017 -3.7632885 6.14997962 -5.93359375 9.08203125 C-6.49369141 9.84064453 -7.05378906 10.59925781 -7.63085938 11.38085938 C-8.22705078 12.18330078 -8.82324219 12.98574219 -9.4375 13.8125 C-10.37239258 15.07610352 -10.37239258 15.07610352 -11.32617188 16.36523438 C-15.67188331 22.23172377 -20.04290134 28.07910994 -24.43896484 33.90795898 C-27.24282818 37.63194231 -30.01190143 41.37861638 -32.75390625 45.1484375 C-33.38748047 46.01726563 -34.02105469 46.88609375 -34.67382812 47.78125 C-35.90984071 49.47869024 -37.14178122 51.17910496 -38.36914062 52.8828125 C-38.92923828 53.65109375 -39.48933594 54.419375 -40.06640625 55.2109375 C-40.56084229 55.89462402 -41.05527832 56.57831055 -41.56469727 57.28271484 C-43 59 -43 59 -46 61 C-46 51.1 -46 41.2 -46 31 C-68.77 31 -91.54 31 -115 31 C-115 37.93 -115 44.86 -115 52 C-113.52200928 51.9685791 -112.04401855 51.9371582 -110.52124023 51.90478516 C-105.02178873 51.79593557 -99.52243186 51.727211 -94.0222168 51.67041016 C-91.6447751 51.64029341 -89.267444 51.59939068 -86.89038086 51.54736328 C-83.46700721 51.47432749 -80.0451061 51.44049113 -76.62109375 51.4140625 C-75.56353378 51.38309479 -74.50597382 51.35212708 -73.41636658 51.32022095 C-67.21767149 51.31741321 -63.733341 52.0408377 -59.26002502 56.45823669 C-55.67942171 60.83945349 -55.42637304 65.54245 -55.5859375 71.00390625 C-57.35394343 83.79693026 -68.43524795 95.09654219 -76 105 C-77.13841874 106.50230272 -78.27645279 108.00489705 -79.4140625 109.5078125 C-85.73976846 117.84092078 -92.17328047 126.08802534 -98.65722656 134.29833984 C-101.39566589 137.76868932 -104.12400276 141.24699341 -106.85351562 144.72436523 C-109.26416725 147.7944775 -111.67953703 150.86072491 -114.1015625 153.921875 C-114.60751953 154.56253906 -115.11347656 155.20320312 -115.63476562 155.86328125 C-116.60858572 157.0961911 -117.58378817 158.32801068 -118.56054688 159.55859375 C-121.00777537 162.62975473 -121.00777537 162.62975473 -123 166 C-123.66 166 -124.32 166 -125 166 C-125 166.99 -125 167.98 -125 169 C-126.61899104 170.71301593 -128.29636158 172.37114406 -130 174 C-131.90363369 176.14622064 -133.73077727 178.35477871 -135.5625 180.5625 C-138.58067451 184.19510343 -141.59127521 187.71960367 -145 191 C-146.48671045 188.02657911 -146.07301008 185.3879853 -146.02172852 182.07177734 C-146.01212097 181.35947464 -146.00251343 180.64717194 -145.99261475 179.9132843 C-145.95957981 177.55406956 -145.91926475 175.1950374 -145.87890625 172.8359375 C-145.85460952 171.20212451 -145.83076574 169.56830473 -145.80735779 167.93447876 C-145.74447237 163.63045524 -145.67541839 159.32655173 -145.60510254 155.02264404 C-145.53445931 150.63233921 -145.46961836 146.24194917 -145.40429688 141.8515625 C-145.27522709 133.23428066 -145.139644 124.61711693 -145 116 C-143.71617432 116.02860107 -142.43234863 116.05720215 -141.10961914 116.08666992 C-131.82068592 116.33256725 -131.82068592 116.33256725 -123.28076172 113.36181641 C-121.3284124 111.11736301 -119.88349486 108.91076812 -118.4375 106.3125 C-117.8906958 105.45849609 -117.3438916 104.60449219 -116.78051758 103.72460938 C-115.67537572 101.99771422 -114.59364017 100.25559181 -113.53710938 98.49853516 C-111.29003948 94.84597587 -108.74395664 91.43914805 -106.1875 88 C-104.04134006 85.06334684 -102.1638361 82.49150831 -101 79 C-101.6794165 79.16008545 -102.35883301 79.3201709 -103.05883789 79.48510742 C-108.41832521 80.42336249 -113.8643473 80.26462674 -119.29223633 80.29516602 C-120.72072233 80.30670835 -122.14916444 80.32719609 -123.57739258 80.35668945 C-125.65475385 80.39951424 -127.73084511 80.41554974 -129.80859375 80.42578125 C-131.04407959 80.44036377 -132.27956543 80.45494629 -133.55249023 80.4699707 C-138.77610894 79.75787765 -141.82885996 77.33379838 -145.25 73.4375 C-150.32921401 63.46047248 -149.67241623 50.98012268 -150 40 C-150.02868164 39.07606445 -150.05736328 38.15212891 -150.08691406 37.20019531 C-150.16320033 34.38339746 -150.2117437 31.56755175 -150.25 28.75 C-150.27143066 27.88133301 -150.29286133 27.01266602 -150.31494141 26.11767578 C-150.34789836 19.84731014 -149.54583069 15.0389698 -145.38671875 10.07421875 C-144.82597656 9.61660156 -144.26523438 9.15898437 -143.6875 8.6875 C-142.85798828 7.98173828 -142.85798828 7.98173828 -142.01171875 7.26171875 C-131.13051463 0.43719655 -114.93923915 1.90276056 -102.65625 2.0078125 C-90.70819496 2.06825971 -78.77890376 1.91170419 -66.8359375 1.5625 C-66.07864475 1.54044621 -65.32135201 1.51839241 -64.54111099 1.49567032 C-59.92919927 1.359932 -55.31750952 1.21758629 -50.70587158 1.07287598 C-44.46647339 0.87779777 -38.22685071 0.69019306 -31.98717117 0.50436401 C-29.85485167 0.43995905 -27.72263954 0.37266627 -25.59042358 0.30493164 C-17.05507153 0.04545203 -8.53895738 -0.05236776 0 0 Z " fill="#DE3432" transform="translate(312,4)"/>
<path d="M0 0 C-3.43367856 2.09352976 -6.09363593 2.23437612 -10.078125 2.1953125 C-11.81835938 2.18564453 -11.81835938 2.18564453 -13.59375 2.17578125 C-14.8003125 2.15902344 -16.006875 2.14226563 -17.25 2.125 C-19.08304688 2.11146484 -19.08304688 2.11146484 -20.953125 2.09765625 C-23.96894782 2.07409513 -26.98437492 2.04119706 -30 2 C-30 1.67 -30 1.34 -30 1 C-19.71363864 -0.61642821 -10.40161303 -1.20268651 0 0 Z " fill="#C2453F" transform="translate(208,7)"/>
<path d="M0 0 C4.62 0 9.24 0 14 0 C11.71489655 3.80850575 10.12404415 6.09140717 7 9 C6.67 6.69 6.34 4.38 6 2 C3.03 1.505 3.03 1.505 0 1 C0 0.67 0 0.34 0 0 Z " fill="#D43834" transform="translate(298,4)"/>
<path d="M0 0 C4.62 0 9.24 0 14 0 C14 0.33 14 0.66 14 1 C11.03 1 8.06 1 5 1 C5.33 2.65 5.66 4.3 6 6 C6.99 5.67 7.98 5.34 9 5 C9 7.31 9 9.62 9 12 C8.34 11.67 7.68 11.34 7 11 C7 10.34 7 9.68 7 9 C6.34 9 5.68 9 5 9 C3.35 6.03 1.7 3.06 0 0 Z " fill="#C43A33" transform="translate(3,4)"/>
<path d="M0 0 C2.99332739 0.9977758 3.94766315 1.7522025 6 4 C4.44499019 7.81684226 1.96404505 10.19195732 -1 13 C-1 12.01 -1 11.02 -1 10 C-0.34 10 0.32 10 1 10 C0.67 6.7 0.34 3.4 0 0 Z " fill="#D23A37" transform="translate(168,182)"/>
<path d="M0 0 C0.33 0 0.66 0 1 0 C1.33 7.92 1.66 15.84 2 24 C2.66 24 3.32 24 4 24 C2.25 27.875 2.25 27.875 0 29 C0 19.43 0 9.86 0 0 Z " fill="#BE413C" transform="translate(266,36)"/>
<path d="M0 0 C0.5534764 2.07553648 1 3.84365964 1 6 C0.34 6 -0.32 6 -1 6 C-1.33 7.65 -1.66 9.3 -2 11 C-2.99 10.67 -3.98 10.34 -5 10 C-5.99 10.495 -5.99 10.495 -7 11 C-5.5140084 6.40693504 -3.14985318 3.56430755 0 0 Z " fill="#D03B34" transform="translate(206,92)"/>
<path d="M0 0 C4.84455959 1.40932642 4.84455959 1.40932642 7 3 C7.969218 5.79200866 7.95072091 7.99397579 8 11 C2.19794344 5.35475578 2.19794344 5.35475578 0 2 C0 1.34 0 0.68 0 0 Z " fill="#D63636" transform="translate(12,16)"/>
<path d="M0 0 C0.66 0.33 1.32 0.66 2 1 C2.1953125 7.0546875 2.1953125 7.0546875 2 9 C1.34 9.66 0.68 10.32 0 11 C-1.00578589 9.71283353 -2.00446798 8.42011342 -3 7.125 C-3.556875 6.40570313 -4.11375 5.68640625 -4.6875 4.9453125 C-6 3 -6 3 -6 1 C-5.34 1 -4.68 1 -4 1 C-4 1.66 -4 2.32 -4 3 C-3.34 3 -2.68 3 -2 3 C-2 3.66 -2 4.32 -2 5 C-1.34 5 -0.68 5 0 5 C0 3.35 0 1.7 0 0 Z " fill="#C14132" transform="translate(47,54)"/>
<path d="M0 0 C0.66 0 1.32 0 2 0 C2 0.99 2 1.98 2 3 C2.97648017 4.02297922 3.98131338 5.01904252 5 6 C6.75 8.5625 6.75 8.5625 8 11 C7.67 11.66 7.34 12.32 7 13 C4.03 9.37 1.06 5.74 -2 2 C-1.34 1.34 -0.68 0.68 0 0 Z " fill="#CE3C3B" transform="translate(114,150)"/>
<path d="M0 0 C0.99 0.33 1.98 0.66 3 1 C1.55746343 4.36591866 -0.33264727 6.51047079 -3 9 C-3.89674777 6.48910624 -4.13172674 5.35464891 -3.1875 2.8125 C-2 1 -2 1 0 0 Z " fill="#D33935" transform="translate(204,144)"/>
<path d="M0 0 C0.99 0.33 1.98 0.66 3 1 C0.69 3.97 -1.62 6.94 -4 10 C-5 6 -5 6 -4 3 C-1.9375 2.3125 -1.9375 2.3125 0 2 C0 1.34 0 0.68 0 0 Z " fill="#CC3B36" transform="translate(198,153)"/>
<path d="M0 0 C0.598125 0.33 1.19625 0.66 1.8125 1 C4.05386471 2.20787988 4.05386471 2.20787988 7 2 C7 4.31 7 6.62 7 9 C4.03595495 6.19195732 1.55500981 3.81684226 0 0 Z " fill="#D13D38" transform="translate(78,107)"/>
<path d="M0 0 C-2.475 3.465 -2.475 3.465 -5 7 C-6.231394 4.53721199 -6.07159196 2.7204945 -6 0 C-3 -1 -3 -1 0 0 Z " fill="#CB3E31" transform="translate(251,88)"/>
<path d="M0 0 C0 1.98 0 3.96 0 6 C-1.9375 5.1875 -1.9375 5.1875 -4 4 C-4.33 3.01 -4.66 2.02 -5 1 C-3 0 -3 0 0 0 Z " fill="#CF3C33" transform="translate(110,141)"/>
<path d="M0 0 C4.8 3.32307692 4.8 3.32307692 5.8125 6.75 C5.874375 7.4925 5.93625 8.235 6 9 C5.01 8.34 4.02 7.68 3 7 C3 6.01 3 5.02 3 4 C2.01 4 1.02 4 0 4 C0 2.68 0 1.36 0 0 Z " fill="#C33F3C" transform="translate(249,58)"/>
<path d="M0 0 C4.62 0 9.24 0 14 0 C13.34 1.32 12.68 2.64 12 4 C11.34 3.34 10.68 2.68 10 2 C7.56747339 1.53837573 7.56747339 1.53837573 4.875 1.375 C3.96492188 1.30023438 3.05484375 1.22546875 2.1171875 1.1484375 C1.41851562 1.09945313 0.71984375 1.05046875 0 1 C0 0.67 0 0.34 0 0 Z " fill="#BF413A" transform="translate(298,4)"/>
<path d="M0 0 C2.4375 0.625 2.4375 0.625 5 2 C5.8125 5.125 5.8125 5.125 6 8 C1.125 3.375 1.125 3.375 0 0 Z " fill="#C74240" transform="translate(12,16)"/>
<path d="M0 0 C1.70884005 1.62339805 3.37446717 3.29319053 5 5 C5 5.66 5 6.32 5 7 C4.34 7 3.68 7 3 7 C1.66666667 5.66666667 0.33333333 4.33333333 -1 3 C-0.67 2.01 -0.34 1.02 0 0 Z " fill="#C43D3A" transform="translate(146,13)"/>
<path d="" fill="#FFFFFF" transform="translate(0,0)"/>
<path d="" fill="#FFFFFF" transform="translate(0,0)"/>
<path d="" fill="#FFFFFF" transform="translate(0,0)"/>
<path d="" fill="#FFFFFF" transform="translate(0,0)"/>
<path d="" fill="#FFFFFF" transform="translate(0,0)"/>
<path d="" fill="#FFFFFF" transform="translate(0,0)"/>
<path d="" fill="#FFFFFF" transform="translate(0,0)"/>
<path d="" fill="#FFFFFF" transform="translate(0,0)"/>
<path d="" fill="#FFFFFF" transform="translate(0,0)"/>
<path d="" fill="#FFFFFF" transform="translate(0,0)"/>
<path d="" fill="#FFFFFF" transform="translate(0,0)"/>
<path d="" fill="#FFFFFF" transform="translate(0,0)"/>
<path d="" fill="#FFFFFF" transform="translate(0,0)"/>
<path d="" fill="#FFFFFF" transform="translate(0,0)"/>
<path d="" fill="#FFFFFF" transform="translate(0,0)"/>
<path d="" fill="#FFFFFF" transform="translate(0,0)"/>
<path d="" fill="#FFFFFF" transform="translate(0,0)"/>
<path d="" fill="#FFFFFF" transform="translate(0,0)"/>
<path d="" fill="#FEFFFF" transform="translate(0,0)"/>
<path d="" fill="#FFFFFF" transform="translate(0,0)"/>
<path d="" fill="#FFFFFF" transform="translate(0,0)"/>
<path d="" fill="#FFFFFF" transform="translate(0,0)"/>
<path d="" fill="#FFFFFF" transform="translate(0,0)"/>
<path d="" fill="#FFFFFF" transform="translate(0,0)"/>
<path d="" fill="#FFFFFF" transform="translate(0,0)"/>
<path d="" fill="#FFFFFF" transform="translate(0,0)"/>
<path d="" fill="#FFFFFF" transform="translate(0,0)"/>
<path d="" fill="#FFFFFF" transform="translate(0,0)"/>
<path d="" fill="#FFFFFF" transform="translate(0,0)"/>
<path d="" fill="#FFFFFF" transform="translate(0,0)"/>
<path d="" fill="#FFFFFF" transform="translate(0,0)"/>
<path d="" fill="#FFFFFF" transform="translate(0,0)"/>
<path d="" fill="#FFFFFF" transform="translate(0,0)"/>
<path d="" fill="#FFFFFF" transform="translate(0,0)"/>
<path d="" fill="#FFFFFF" transform="translate(0,0)"/>
<path d="" fill="#FFFFFF" transform="translate(0,0)"/>
<path d="" fill="#FFFFFF" transform="translate(0,0)"/>
<path d="" fill="#FFFFFF" transform="translate(0,0)"/>
<path d="" fill="#FFFFFF" transform="translate(0,0)"/>
<path d="" fill="#FFFFFF" transform="translate(0,0)"/>
<path d="" fill="#FFFFFF" transform="translate(0,0)"/>
<path d="" fill="#FFFFFF" transform="translate(0,0)"/>
<path d="" fill="#FFFFFF" transform="translate(0,0)"/>
<path d="" fill="#FFFFFF" transform="translate(0,0)"/>
<path d="" fill="#FFFFFF" transform="translate(0,0)"/>
<path d="" fill="#FFFFFF" transform="translate(0,0)"/>
<path d="" fill="#FFFFFF" transform="translate(0,0)"/>
<path d="" fill="#FFFFFF" transform="translate(0,0)"/>
<path d="" fill="#FFFFFF" transform="translate(0,0)"/>
<path d="" fill="#FFFFFF" transform="translate(0,0)"/>
<path d="" fill="#FFFFFF" transform="translate(0,0)"/>
<path d="" fill="#FFFFFF" transform="translate(0,0)"/>
<path d="" fill="#FFFFFF" transform="translate(0,0)"/>
<path d="" fill="#FFFFFF" transform="translate(0,0)"/>
<path d="" fill="#FFFFFF" transform="translate(0,0)"/>
<path d="" fill="#FFFFFE" transform="translate(0,0)"/>
<path d="" fill="#FFFFFF" transform="translate(0,0)"/>
<path d="" fill="#FFFFFF" transform="translate(0,0)"/>
<path d="" fill="#FFFFFF" transform="translate(0,0)"/>
<path d="" fill="#FFFFFF" transform="translate(0,0)"/>
<path d="" fill="#FFFFFF" transform="translate(0,0)"/>
<path d="" fill="#FFFFFF" transform="translate(0,0)"/>
<path d="" fill="#FFFFFF" transform="translate(0,0)"/>
<path d="" fill="#FFFFFF" transform="translate(0,0)"/>
<path d="" fill="#FFFFFF" transform="translate(0,0)"/>
<path d="" fill="#FFFFFF" transform="translate(0,0)"/>
<path d="" fill="#FFFFFF" transform="translate(0,0)"/>
</svg>
