<svg version="1.1" id="Layer_1" xmlns="http://www.w3.org/2000/svg" xmlns:xlink="http://www.w3.org/1999/xlink" x="0px" y="0px"
	 width="100%" viewBox="0 0 314 197" enable-background="new 0 0 314 197" xml:space="preserve">
<path fill="#000000" opacity="1.000000" stroke="none" 
	d="
M208.000000,198.000000 
	C138.666672,198.000000 69.833351,198.000000 1.000019,198.000000 
	C1.000012,132.333344 1.000012,66.666702 1.000006,1.000036 
	C105.666634,1.000024 210.333267,1.000024 314.999939,1.000012 
	C314.999939,66.666634 314.999939,132.333267 314.999969,197.999939 
	C279.500000,198.000000 244.000000,198.000000 208.000000,198.000000 
M128.531464,171.944199 
	C135.014114,179.804993 141.496765,187.665787 148.651154,196.341125 
	C148.651154,170.429565 148.651154,146.000076 148.651154,121.035736 
	C143.060806,121.035736 137.762283,121.198181 132.485428,120.931747 
	C130.999786,120.856743 129.116241,119.882683 128.202774,118.708359 
	C123.038086,112.068832 118.029922,105.302330 113.136475,98.458923 
	C110.048172,94.139969 107.253304,89.611198 103.892982,84.519135 
	C106.082634,84.243484 107.022964,83.998665 107.954872,84.027321 
	C117.394958,84.317566 126.832542,84.692482 136.273178,84.960846 
	C142.580429,85.140144 147.058670,82.030945 149.533081,76.462265 
	C150.841965,73.516586 151.716919,70.157982 151.848282,66.947357 
	C152.411606,53.177982 152.645615,39.394783 152.958206,25.615681 
	C153.091904,19.722233 150.426743,14.969122 145.146561,12.916156 
	C139.281143,10.635638 132.970322,8.713686 126.744156,8.306549 
	C112.339104,7.364585 97.869049,7.382991 83.423637,7.100082 
	C62.643608,6.693111 41.861980,6.368017 21.081341,5.991326 
	C20.094183,5.973432 19.112141,5.760868 18.123968,5.696398 
	C13.774296,5.412618 9.423247,5.149934 5.072697,4.879605 
	C4.861378,5.295461 4.650060,5.711317 4.438741,6.127172 
	C19.005388,25.842194 33.572033,45.557217 48.138683,65.272240 
	C48.475204,65.146721 48.811729,65.021210 49.148254,64.895691 
	C49.148254,55.367664 49.148254,45.839630 49.148254,36.362747 
	C72.688354,36.362747 95.736748,36.362747 118.717880,36.362747 
	C118.717880,43.404236 118.717880,49.997364 118.717880,57.017025 
	C116.781944,57.017025 115.152473,57.016773 113.523010,57.017067 
	C99.860291,57.019524 86.195656,56.908676 72.536774,57.138897 
	C70.321663,57.176235 67.798714,58.284996 65.987625,59.652725 
	C57.572529,66.007767 57.528038,76.666542 62.815105,84.925865 
	C66.794968,91.143097 70.777916,97.386375 75.204231,103.284286 
	C86.268044,118.026436 97.537437,132.615417 108.819008,147.192581 
	C115.127426,155.343842 121.624550,163.349030 128.531464,171.944199 
M288.455902,38.018089 
	C296.449066,27.332674 304.442230,16.647261 312.435364,5.961847 
	C312.127106,5.546865 311.818817,5.131883 311.510529,4.716902 
	C306.270020,5.143236 301.036652,5.750265 295.787506,5.959006 
	C284.175751,6.420765 272.556458,6.697158 260.939453,7.021359 
	C248.658020,7.364104 236.375900,7.683005 224.093674,7.996917 
	C210.306686,8.349287 196.507797,8.446074 182.735809,9.106883 
	C172.770386,9.585045 162.391479,16.169119 163.065353,29.271423 
	C163.762863,42.833427 164.033936,56.430603 165.211945,69.949623 
	C165.903305,77.883858 171.862549,85.934334 182.116928,85.030602 
	C186.251892,84.666191 190.444397,84.950310 194.610718,84.947174 
	C200.322739,84.942879 206.034760,84.946106 211.943954,84.946106 
	C211.755798,85.547890 211.682281,86.585106 211.167664,87.308548 
	C203.555984,98.008911 195.959137,108.722191 188.124222,119.257980 
	C187.271896,120.404129 184.983353,120.884193 183.329483,120.956871 
	C178.388855,121.173965 173.432541,121.034866 167.984070,121.034866 
	C167.984070,146.210175 167.984070,170.812454 167.984070,195.886383 
	C168.951141,195.178391 169.566650,194.895844 169.948135,194.424026 
	C181.145157,180.576385 192.551559,166.889786 203.440872,152.803558 
	C219.125366,132.514359 234.546478,112.017937 249.825180,91.420929 
	C254.128983,85.619011 257.738678,79.369431 257.078186,71.440186 
	C256.377380,63.027332 250.542068,57.025269 242.136246,57.020363 
	C232.636948,57.014820 223.137665,57.022511 213.638367,57.023834 
	C208.536545,57.024544 203.434738,57.023964 198.324524,57.023964 
	C198.324524,49.634251 198.324524,42.916496 198.324524,36.222198 
	C221.324417,36.222198 243.923706,36.222198 267.080597,36.222198 
	C267.080597,45.873898 267.080597,55.244740 267.080597,64.615578 
	C267.548767,64.827362 268.016937,65.039139 268.485138,65.250923 
	C275.006683,56.374573 281.528259,47.498222 288.455902,38.018089 
z"/>
<path fill="#DE3532" opacity="1.000000" stroke="none" 
	d="
M128.284058,171.682129 
	C121.624550,163.349030 115.127426,155.343842 108.819008,147.192581 
	C97.537437,132.615417 86.268044,118.026436 75.204231,103.284286 
	C70.777916,97.386375 66.794968,91.143097 62.815105,84.925865 
	C57.528038,76.666542 57.572529,66.007767 65.987625,59.652725 
	C67.798714,58.284996 70.321663,57.176235 72.536774,57.138897 
	C86.195656,56.908676 99.860291,57.019524 113.523010,57.017067 
	C115.152473,57.016773 116.781944,57.017025 118.717880,57.017025 
	C118.717880,49.997364 118.717880,43.404236 118.717880,36.362747 
	C95.736748,36.362747 72.688354,36.362747 49.148254,36.362747 
	C49.148254,45.839630 49.148254,55.367664 49.148254,64.895691 
	C48.811729,65.021210 48.475204,65.146721 48.138683,65.272240 
	C33.572033,45.557217 19.005388,25.842194 4.438741,6.127172 
	C4.650060,5.711317 4.861378,5.295461 5.072697,4.879605 
	C9.423247,5.149934 13.774296,5.412618 18.123968,5.696398 
	C19.112141,5.760868 20.094183,5.973432 21.081341,5.991326 
	C41.861980,6.368017 62.643608,6.693111 83.423637,7.100082 
	C97.869049,7.382991 112.339104,7.364585 126.744156,8.306549 
	C132.970322,8.713686 139.281143,10.635638 145.146561,12.916156 
	C150.426743,14.969122 153.091904,19.722233 152.958206,25.615681 
	C152.645615,39.394783 152.411606,53.177982 151.848282,66.947357 
	C151.716919,70.157982 150.841965,73.516586 149.533081,76.462265 
	C147.058670,82.030945 142.580429,85.140144 136.273178,84.960846 
	C126.832542,84.692482 117.394958,84.317566 107.954872,84.027321 
	C107.022964,83.998665 106.082634,84.243484 103.892982,84.519135 
	C107.253304,89.611198 110.048172,94.139969 113.136475,98.458923 
	C118.029922,105.302330 123.038086,112.068832 128.202774,118.708359 
	C129.116241,119.882683 130.999786,120.856743 132.485428,120.931747 
	C137.762283,121.198181 143.060806,121.035736 148.651154,121.035736 
	C148.651154,146.000076 148.651154,170.429565 148.651154,196.341125 
	C141.496765,187.665787 135.014114,179.804993 128.284058,171.682129 
z"/>
<path fill="#DE3532" opacity="1.000000" stroke="none" 
	d="
M288.252869,38.319981 
	C281.528259,47.498222 275.006683,56.374573 268.485138,65.250923 
	C268.016937,65.039139 267.548767,64.827362 267.080597,64.615578 
	C267.080597,55.244740 267.080597,45.873898 267.080597,36.222198 
	C243.923706,36.222198 221.324417,36.222198 198.324524,36.222198 
	C198.324524,42.916496 198.324524,49.634251 198.324524,57.023964 
	C203.434738,57.023964 208.536545,57.024544 213.638367,57.023834 
	C223.137665,57.022511 232.636948,57.014820 242.136246,57.020363 
	C250.542068,57.025269 256.377380,63.027332 257.078186,71.440186 
	C257.738678,79.369431 254.128983,85.619011 249.825180,91.420929 
	C234.546478,112.017937 219.125366,132.514359 203.440872,152.803558 
	C192.551559,166.889786 181.145157,180.576385 169.948135,194.424026 
	C169.566650,194.895844 168.951141,195.178391 167.984070,195.886383 
	C167.984070,170.812454 167.984070,146.210175 167.984070,121.034866 
	C173.432541,121.034866 178.388855,121.173965 183.329483,120.956871 
	C184.983353,120.884193 187.271896,120.404129 188.124222,119.257980 
	C195.959137,108.722191 203.555984,98.008911 211.167664,87.308548 
	C211.682281,86.585106 211.755798,85.547890 211.943954,84.946106 
	C206.034760,84.946106 200.322739,84.942879 194.610718,84.947174 
	C190.444397,84.950310 186.251892,84.666191 182.116928,85.030602 
	C171.862549,85.934334 165.903305,77.883858 165.211945,69.949623 
	C164.033936,56.430603 163.762863,42.833427 163.065353,29.271423 
	C162.391479,16.169119 172.770386,9.585045 182.735809,9.106883 
	C196.507797,8.446074 210.306686,8.349287 224.093674,7.996917 
	C236.375900,7.683005 248.658020,7.364104 260.939453,7.021359 
	C272.556458,6.697158 284.175751,6.420765 295.787506,5.959006 
	C301.036652,5.750265 306.270020,5.143236 311.510529,4.716902 
	C311.818817,5.131883 312.127106,5.546865 312.435364,5.961847 
	C304.442230,16.647261 296.449066,27.332674 288.252869,38.319981 
z"/>
</svg>